<?xml version="1.0" standalone="no"?>
<!DOCTYPE svg PUBLIC "-//W3C//DTD SVG 20010904//EN"
 "http://www.w3.org/TR/2001/REC-SVG-20010904/DTD/svg10.dtd">
<svg version="1.0" xmlns="http://www.w3.org/2000/svg"
 width="495.000000pt" height="505.000000pt" viewBox="0 0 495.000000 505.000000"
 preserveAspectRatio="xMidYMid meet">

<g transform="translate(0.000000,505.000000) scale(0.100000,-0.100000)"
fill="#000000" stroke="none">
<path d="M2460 4696 c0 -36 -417 -449 -487 -482 -76 -36 -69 -48 25 -40 l77 7
197 196 197 196 42 -38 c23 -21 330 -327 682 -681 352 -354 644 -644 648 -644
5 0 9 33 9 72 l0 73 -682 682 c-376 376 -688 683 -695 683 -7 0 -13 -11 -13
-24z"/>
<path d="M4021 4063 c-22 -15 -60 -17 -330 -18 -239 -1 -313 2 -340 12 -18 8
-42 13 -52 11 -17 -3 -13 -10 26 -50 l46 -48 274 0 c235 0 276 -2 289 -16 14
-14 16 -113 14 -970 -2 -525 -1 -954 2 -954 3 0 27 22 53 48 l47 48 -2 977 -3
977 -24 -17z"/>
<path d="M890 3684 c0 -433 -7 -402 72 -319 l37 40 1 283 0 282 967 0 968 0
-52 52 c-49 48 -54 51 -66 34 -12 -17 -56 -18 -947 -14 -710 3 -940 7 -957 17
l-23 12 0 -387z"/>
<path d="M1675 3853 c-46 -14 -97 -62 -710 -676 -489 -490 -668 -662 -689
-666 -16 -4 -31 -11 -33 -16 -2 -6 121 -134 272 -285 l275 -275 0 81 0 80
-200 198 c-110 109 -200 199 -200 200 0 1 309 311 688 689 449 449 680 687
667 686 -11 0 -42 -7 -70 -16z"/>
<path d="M2292 3803 c-9 -3 -3 -22 19 -64 30 -56 49 -68 49 -31 0 9 -9 28 -20
42 -11 14 -20 30 -20 37 0 15 -11 22 -28 16z"/>
<path d="M2456 3794 c-3 -8 2 -27 12 -42 9 -14 16 -27 15 -29 -7 -12 13 -43
28 -43 11 0 19 2 19 5 0 9 -60 125 -64 125 -2 0 -7 -7 -10 -16z"/>
<path d="M2630 3778 c0 -18 -4 -50 -9 -70 -8 -33 -7 -38 9 -38 14 0 18 12 24
61 3 34 3 65 0 70 -12 19 -24 7 -24 -23z"/>
<path d="M2213 3793 c-9 -3 -3 -22 20 -64 32 -59 47 -73 47 -44 0 14 -47 116
-53 114 -1 0 -8 -3 -14 -6z"/>
<path d="M2722 3778 c-19 -19 -14 -42 17 -72 19 -18 27 -34 23 -45 -5 -14 -4
-14 11 -2 25 20 21 39 -14 71 -20 18 -30 34 -26 44 8 19 5 20 -11 4z"/>
<path d="M2786 3767 c3 -10 9 -15 12 -12 3 3 0 11 -7 18 -10 9 -11 8 -5 -6z"/>
<path d="M2120 3766 c0 -2 7 -6 15 -10 8 -3 15 -1 15 4 0 6 -7 10 -15 10 -8 0
-15 -2 -15 -4z"/>
<path d="M2073 3744 c-9 -24 9 -46 48 -59 25 -9 34 -18 33 -33 0 -17 2 -19 13
-11 16 14 17 45 1 56 -7 4 -29 13 -48 19 -23 7 -35 16 -34 27 2 22 -5 22 -13
1z"/>
<path d="M2844 3707 c-9 -29 -21 -58 -26 -64 -7 -9 -5 -15 6 -19 21 -8 19 -11
44 63 16 50 18 63 7 67 -9 3 -19 -12 -31 -47z"/>
<path d="M1988 3725 c-10 -11 39 -120 56 -123 20 -4 20 -7 -7 63 -21 55 -36
73 -49 60z"/>
<path d="M1900 3686 c0 -2 9 -6 20 -9 11 -3 18 -1 14 4 -5 9 -34 13 -34 5z"/>
<path d="M2690 3675 c0 -8 4 -15 10 -15 5 0 7 7 4 15 -4 8 -8 15 -10 15 -2 0
-4 -7 -4 -15z"/>
<path d="M3042 3658 c-17 -22 -24 -125 -8 -131 10 -4 15 11 19 66 7 77 5 84
-11 65z"/>
<path d="M1860 3647 c0 -22 22 -37 55 -37 41 0 60 -14 51 -36 -5 -14 -4 -16 4
-8 7 7 10 22 8 35 -2 19 -12 26 -43 32 -22 5 -48 13 -57 18 -13 7 -18 5 -18
-4z"/>
<path d="M2090 3640 c0 -13 18 -22 24 -11 3 5 -1 11 -9 15 -8 3 -15 1 -15 -4z"/>
<path d="M2895 3610 c-19 -8 -19 -9 3 -9 12 -1 22 4 22 9 0 6 -1 10 -2 9 -2 0
-12 -4 -23 -9z"/>
<path d="M3162 3578 c-1 -18 -6 -48 -12 -67 -11 -38 -6 -51 13 -32 18 18 36
108 23 121 -17 17 -23 12 -24 -22z"/>
<path d="M1760 3587 c0 -9 22 -31 49 -50 44 -32 51 -34 68 -22 12 9 13 14 5
15 -7 0 -32 13 -55 28 -64 43 -67 45 -67 29z"/>
<path d="M2940 3580 c0 -5 5 -10 10 -10 6 0 10 5 10 10 0 6 -4 10 -10 10 -5 0
-10 -4 -10 -10z"/>
<path d="M1905 3550 c4 -6 11 -8 16 -5 14 9 11 15 -7 15 -8 0 -12 -5 -9 -10z"/>
<path d="M3242 3511 c-7 -16 -24 -41 -37 -55 -23 -25 -23 -26 -4 -36 10 -6 19
-7 19 -2 0 5 16 30 36 56 33 44 37 66 11 66 -7 0 -18 -13 -25 -29z"/>
<path d="M1637 3514 c-3 -4 4 -15 16 -25 20 -16 21 -20 8 -41 -13 -22 -13 -22
4 -8 16 13 20 12 40 -12 16 -19 26 -23 33 -16 8 8 -1 25 -30 59 -39 46 -57 57
-71 43z"/>
<path d="M1583 3463 c-8 -3 2 -23 30 -58 39 -51 57 -61 64 -39 4 15 -81 103
-94 97z"/>
<path d="M3314 3376 c-20 -20 -34 -43 -33 -57 0 -15 3 -19 6 -9 8 23 45 61 78
81 29 18 29 19 7 19 -14 0 -39 -15 -58 -34z"/>
<path d="M3397 3329 c-26 -22 -47 -49 -47 -58 0 -19 30 -51 46 -51 5 0 1 5 -8
11 -30 17 -20 44 27 79 25 19 45 37 45 41 0 21 -21 14 -63 -22z"/>
<path d="M1499 3342 c7 -12 20 -22 30 -22 10 0 21 -3 25 -7 3 -4 12 -8 19 -9
7 -1 19 -5 28 -9 10 -4 19 0 22 9 5 11 -8 19 -48 31 -30 8 -62 18 -71 22 -14
5 -15 3 -5 -15z"/>
<path d="M3479 3273 c-13 -17 -13 -17 6 -3 11 8 22 16 24 17 2 2 0 3 -6 3 -6
0 -17 -8 -24 -17z"/>
<path d="M1407 3254 c-12 -12 -8 -34 6 -34 8 0 33 -13 55 -30 48 -35 48 -35
55 -16 4 10 -12 26 -46 48 -65 41 -62 40 -70 32z"/>
<path d="M3483 3192 c-31 -21 -49 -40 -46 -48 4 -11 11 -10 33 6 36 26 42 17
23 -32 -12 -29 -13 -42 -5 -50 14 -14 13 -15 33 44 15 43 15 47 0 53 -13 5
-11 9 12 23 26 16 31 34 11 38 -5 1 -32 -14 -61 -34z"/>
<path d="M1343 3148 c-9 -11 -8 -17 9 -27 11 -7 17 -8 13 -2 -7 13 13 13 72 2
39 -8 41 -7 32 10 -5 11 -17 19 -27 19 -9 0 -33 3 -52 6 -25 4 -40 1 -47 -8z"/>
<path d="M3580 3140 c20 -13 33 -13 25 0 -3 6 -14 10 -23 10 -15 0 -15 -2 -2
-10z"/>
<path d="M1820 3115 c-11 -13 -8 -15 20 -15 28 0 31 2 20 15 -7 8 -16 15 -20
15 -4 0 -13 -7 -20 -15z"/>
<path d="M1980 3120 c-21 -13 -7 -22 27 -18 27 3 27 4 7 15 -12 7 -26 8 -34 3z"/>
<path d="M2657 3123 c-14 -13 -6 -23 17 -23 31 0 56 10 56 21 0 10 -63 12 -73
2z"/>
<path d="M3586 3004 c-42 -46 -46 -54 -28 -54 25 0 102 78 95 97 -8 19 -14 16
-67 -43z"/>
<path d="M4150 2968 l0 -73 207 -207 c114 -115 211 -208 215 -208 4 0 8 -3 8
-6 0 -3 -288 -293 -640 -645 -489 -489 -649 -644 -683 -659 -24 -11 -50 -27
-57 -35 -11 -13 -3 -15 61 -15 l74 0 688 688 687 687 -273 273 c-149 149 -275
272 -280 272 -4 0 -7 -33 -7 -72z"/>
<path d="M1275 3010 c-3 -5 1 -10 10 -10 9 0 13 5 10 10 -3 6 -8 10 -10 10 -2
0 -7 -4 -10 -10z"/>
<path d="M1305 2958 c-98 -38 -88 -60 12 -28 65 21 100 40 76 40 -6 0 -17 2
-25 4 -7 2 -35 -5 -63 -16z"/>
<path d="M1860 2965 c0 -12 8 -16 33 -13 17 2 32 8 32 13 0 6 -15 11 -32 13
-25 3 -33 -1 -33 -13z"/>
<path d="M979 2940 c-9 -14 -23 -38 -31 -55 -10 -22 -20 -29 -36 -28 l-22 3 0
-975 0 -975 392 0 393 0 -58 58 c-51 50 -59 55 -68 40 -9 -16 -33 -18 -274
-18 -146 0 -266 1 -267 3 -2 1 -5 445 -8 987 -5 916 -6 983 -21 960z"/>
<path d="M3624 2927 c-28 -12 -52 -25 -53 -29 -4 -24 5 -24 64 0 36 14 64 30
62 36 -5 16 -20 15 -73 -7z"/>
<path d="M3670 2845 c-19 -7 -45 -14 -57 -14 -16 -1 -23 -7 -23 -20 0 -19 1
-19 62 -1 34 11 65 17 70 14 10 -6 10 -1 2 20 -7 19 -8 19 -54 1z"/>
<path d="M1261 2806 c-43 -9 -51 -13 -40 -23 20 -16 129 4 129 23 0 16 -14 16
-89 0z"/>
<path d="M3701 2752 c-14 -10 -44 -16 -77 -16 l-54 -1 30 -14 c37 -18 104 -1
120 29 13 24 12 24 -19 2z"/>
<path d="M1301 2721 c13 -11 26 -17 28 -15 5 5 -30 33 -43 34 -4 0 2 -9 15
-19z"/>
<path d="M1180 2648 c0 -14 8 -18 33 -18 17 0 49 -3 70 -6 28 -5 37 -3 37 8 0
10 -20 17 -70 24 -64 9 -70 8 -70 -8z"/>
<path d="M3610 2620 c0 -4 11 -10 25 -12 13 -3 22 -2 20 2 -7 11 -45 20 -45
10z"/>
<path d="M1170 2600 c0 -5 5 -10 11 -10 5 0 7 5 4 10 -3 6 -8 10 -11 10 -2 0
-4 -4 -4 -10z"/>
<path d="M3668 2561 c-28 -15 -48 -33 -48 -43 0 -13 12 -10 65 20 44 24 61 38
53 44 -16 10 -14 10 -70 -21z"/>
<path d="M1241 2528 c-49 -24 -60 -33 -48 -40 10 -5 24 -5 34 1 10 5 33 16 51
23 19 8 32 20 32 30 0 10 -1 18 -2 17 -2 0 -32 -14 -67 -31z"/>
<path d="M3618 2443 c-4 -16 3 -18 64 -20 54 -2 68 1 68 12 0 11 -12 15 -42
15 -24 0 -53 3 -64 6 -15 4 -23 0 -26 -13z"/>
<path d="M1265 2388 c-27 -5 -58 -6 -67 -4 -12 3 -18 -2 -18 -15 0 -17 6 -18
68 -12 75 7 75 6 70 25 -2 10 -14 12 -53 6z"/>
<path d="M3610 2378 c0 -9 5 -20 11 -23 17 -11 18 -2 3 19 -12 17 -14 17 -14
4z"/>
<path d="M3647 2323 c-11 -10 -8 -53 3 -53 6 0 10 14 10 30 0 31 -2 35 -13 23z"/>
<path d="M1270 2292 c0 -15 6 -18 30 -14 37 5 34 26 -3 30 -21 3 -27 -1 -27
-16z"/>
<path d="M1190 2258 c0 -36 4 -35 14 5 4 16 2 27 -4 27 -5 0 -10 -14 -10 -32z"/>
<path d="M1330 2247 c0 -38 -89 -64 -118 -35 -7 7 -12 8 -12 2 0 -21 37 -44
68 -44 39 0 72 30 72 65 0 14 -2 25 -5 25 -3 0 -5 -6 -5 -13z"/>
<path d="M3590 2227 c0 -7 21 -18 48 -25 26 -8 54 -17 63 -22 13 -7 18 -4 22
10 4 15 -6 21 -59 34 -76 19 -74 19 -74 3z"/>
<path d="M3641 2161 c-1 -10 -10 -12 -35 -8 -24 4 -36 1 -40 -8 -3 -9 11 -17
47 -25 29 -7 59 -16 68 -21 12 -6 18 -3 22 10 3 14 -2 20 -23 25 -16 3 -30 13
-33 23 -3 10 -5 12 -6 4z"/>
<path d="M1352 2136 c7 -8 15 -12 17 -11 5 6 -10 25 -20 25 -5 0 -4 -6 3 -14z"/>
<path d="M2073 2133 c-40 -3 -53 -8 -53 -20 0 -10 6 -13 16 -9 9 3 45 6 81 6
57 0 64 2 53 15 -7 8 -20 14 -29 13 -9 -1 -40 -3 -68 -5z"/>
<path d="M2495 2120 c-3 -6 1 -13 9 -16 21 -8 66 3 66 16 0 13 -67 13 -75 0z"/>
<path d="M2655 2121 c-3 -5 -2 -12 2 -14 13 -7 73 4 73 14 0 12 -67 12 -75 0z"/>
<path d="M1230 2099 c0 -5 5 -7 10 -4 6 3 10 8 10 11 0 2 -4 4 -10 4 -5 0 -10
-5 -10 -11z"/>
<path d="M1295 2090 c4 -6 11 -8 16 -5 14 9 11 15 -7 15 -8 0 -12 -5 -9 -10z"/>
<path d="M1370 2094 c0 -6 -27 -19 -60 -29 -57 -17 -70 -27 -51 -39 10 -7 131
33 131 42 0 12 -20 37 -20 26z"/>
<path d="M3537 2067 c-7 -19 122 -65 133 -46 6 9 -8 19 -57 36 -78 27 -70 26
-76 10z"/>
<path d="M1378 1969 c-23 -44 -24 -50 -9 -58 13 -8 11 -12 -16 -23 -21 -9 -29
-18 -24 -26 6 -9 22 -6 67 14 72 33 66 28 58 47 -5 15 -8 15 -30 0 -34 -22
-42 -9 -20 31 12 22 15 39 9 49 -6 12 -14 5 -35 -34z"/>
<path d="M3508 1988 c-2 -6 23 -25 56 -42 48 -25 63 -28 69 -18 11 16 13 14
-50 46 -58 29 -70 31 -75 14z"/>
<path d="M2817 1958 c-27 -17 12 -25 92 -20 65 4 80 7 65 15 -22 12 -139 16
-157 5z"/>
<path d="M1287 1945 c3 -8 9 -12 14 -9 12 7 11 11 -5 17 -10 4 -13 1 -9 -8z"/>
<path d="M2135 1950 c-4 -6 5 -10 20 -10 15 0 24 4 20 10 -3 6 -12 10 -20 10
-8 0 -17 -4 -20 -10z"/>
<path d="M2295 1950 c-4 -6 7 -10 27 -10 25 0 29 3 18 10 -19 13 -37 13 -45 0z"/>
<path d="M3490 1915 c0 -45 66 -70 106 -40 18 13 17 14 -19 15 -27 0 -45 7
-62 25 l-25 24 0 -24z"/>
<path d="M3455 1850 c10 -11 20 -20 22 -20 2 0 -2 9 -9 20 -7 11 -17 20 -22
20 -5 0 -1 -9 9 -20z"/>
<path d="M1848 1812 c-14 -2 -32 -10 -38 -18 -11 -12 1 -14 81 -14 90 0 132
10 115 27 -7 8 -106 11 -158 5z"/>
<path d="M2631 1808 c-12 -4 -21 -12 -21 -18 0 -7 38 -10 110 -8 98 1 109 3
96 16 -17 17 -148 24 -185 10z"/>
<path d="M2130 1795 c-11 -13 -8 -15 20 -15 21 0 30 4 28 13 -7 18 -33 20 -48
2z"/>
<path d="M2297 1804 c-19 -19 1 -24 99 -24 80 0 105 3 102 13 -5 13 -188 23
-201 11z"/>
<path d="M3100 1795 c-11 -13 -8 -15 20 -15 28 0 31 2 20 15 -7 8 -16 15 -20
15 -4 0 -13 -7 -20 -15z"/>
<path d="M3390 1785 c-8 -10 -1 -15 32 -20 24 -3 58 -9 77 -12 31 -5 33 -5 22
16 -7 12 -16 19 -20 16 -5 -2 -29 -1 -55 4 -34 6 -49 5 -56 -4z"/>
<path d="M1481 1754 c-52 -40 -59 -41 -71 -11 -5 12 -9 16 -9 8 -1 -7 13 -32
31 -55 17 -22 33 -43 35 -45 2 -2 6 -1 10 3 4 4 0 12 -10 17 -26 15 -21 24 33
60 46 32 57 49 34 55 -5 2 -29 -13 -53 -32z"/>
<path d="M1100 1705 l0 -80 685 -685 685 -685 275 275 c245 245 273 275 250
278 -54 7 -113 -37 -310 -234 -107 -107 -199 -194 -205 -194 -5 0 -10 8 -10
17 0 10 -308 326 -685 703 l-685 685 0 -80z"/>
<path d="M3331 1716 c-10 -11 -6 -18 16 -34 37 -26 107 -36 122 -18 9 11 2 14
-36 20 -26 3 -57 15 -68 26 -19 18 -24 19 -34 6z"/>
<path d="M1548 1655 c-33 -32 -43 -47 -34 -54 13 -11 110 75 101 90 -10 15
-18 11 -67 -36z"/>
<path d="M4028 1668 c-7 -13 -19 -36 -28 -53 -9 -17 -22 -29 -33 -29 -14 2
-17 -6 -17 -40 0 -22 0 -147 -1 -276 0 -129 3 -245 7 -257 l6 -23 -916 0
c-814 0 -923 2 -966 16 -74 24 -80 14 -26 -44 l49 -52 973 0 974 0 0 390 c0
215 -2 390 -5 390 -2 0 -10 -10 -17 -22z"/>
<path d="M1641 1622 c-12 -22 -17 -124 -7 -140 15 -24 21 -3 24 77 3 83 0 94
-17 63z"/>
<path d="M3390 1590 c0 -5 5 -10 11 -10 5 0 7 5 4 10 -3 6 -8 10 -11 10 -2 0
-4 -4 -4 -10z"/>
<path d="M3205 1581 c-3 -6 4 -15 17 -20 13 -5 40 -16 62 -25 47 -20 46 -19
46 -1 0 24 -112 66 -125 46z"/>
<path d="M1717 1566 c-4 -10 -1 -13 9 -9 15 6 19 23 5 23 -5 0 -11 -7 -14 -14z"/>
<path d="M1565 1540 c3 -5 8 -10 11 -10 2 0 4 5 4 10 0 6 -5 10 -11 10 -5 0
-7 -4 -4 -10z"/>
<path d="M3143 1539 c-9 -9 -6 -17 8 -32 11 -12 17 -27 14 -35 -2 -7 -1 -11 4
-7 5 3 18 -6 28 -19 13 -16 24 -21 32 -16 10 6 3 22 -29 64 -23 31 -43 56 -44
56 -1 0 -7 -5 -13 -11z"/>
<path d="M1749 1503 c-13 -16 -12 -17 4 -4 9 7 17 15 17 17 0 8 -8 3 -21 -13z"/>
<path d="M1820 1501 c8 -16 3 -28 -26 -66 -25 -34 -33 -50 -25 -58 6 -6 12 -9
14 -6 2 2 18 25 37 51 32 46 32 48 16 73 -19 29 -31 34 -16 6z"/>
<path d="M3081 1490 c-11 -6 -6 -19 20 -56 19 -26 37 -53 41 -58 5 -8 11 -7
19 1 8 8 6 18 -7 39 -10 16 -21 31 -24 34 -4 3 -13 15 -21 27 -10 14 -20 19
-28 13z"/>
<path d="M1695 1430 c3 -5 8 -10 11 -10 2 0 4 5 4 10 0 6 -5 10 -11 10 -5 0
-7 -4 -4 -10z"/>
<path d="M1880 1393 c0 -12 -6 -24 -12 -26 -8 -4 -7 -6 3 -6 21 -1 34 28 19
43 -7 7 -10 3 -10 -11z"/>
<path d="M3056 1398 c-10 -21 0 -38 22 -38 11 0 13 3 6 8 -7 4 -14 16 -16 27
-4 18 -6 18 -12 3z"/>
<path d="M1913 1373 c-16 -6 -17 -29 -1 -39 6 -4 8 -3 4 4 -3 6 1 18 10 26 15
16 11 19 -13 9z"/>
<path d="M2001 1324 c-20 -53 -20 -58 -5 -75 22 -24 38 -25 23 -1 -8 13 -6 29
10 70 25 62 25 62 7 62 -7 0 -23 -25 -35 -56z"/>
<path d="M2896 1371 c-5 -7 28 -103 40 -120 2 -2 11 -1 20 3 11 4 13 10 7 19
-6 6 -18 33 -28 60 -17 46 -28 56 -39 38z"/>
<path d="M3024 1364 c9 -8 13 -21 10 -27 -5 -9 -3 -8 6 0 11 10 11 15 0 28 -7
8 -17 15 -22 15 -5 0 -2 -7 6 -16z"/>
<path d="M2224 1249 c36 -68 42 -76 50 -58 7 14 6 26 -2 37 -6 10 -21 33 -31
53 -11 20 -29 39 -39 41 -16 5 -13 -7 22 -73z"/>
<path d="M2706 1305 c4 -8 9 -15 13 -15 4 0 31 -18 61 -40 29 -22 55 -39 56
-37 2 2 -1 16 -5 33 -5 16 -10 25 -10 21 -1 -5 -20 5 -43 22 -45 33 -81 41
-72 16z"/>
<path d="M2410 1246 c0 -25 -4 -56 -10 -71 -9 -24 -8 -25 10 -15 11 6 20 16
21 23 0 7 4 33 8 60 7 42 6 47 -11 47 -15 0 -18 -8 -18 -44z"/>
<path d="M2567 1276 c-9 -23 45 -112 65 -108 14 3 11 12 -19 63 -19 32 -37 59
-38 59 -2 0 -5 -6 -8 -14z"/>
<path d="M2357 1194 c-7 -7 2 -34 12 -34 4 0 7 9 8 20 2 19 -8 26 -20 14z"/>
<path d="M2735 1190 c-3 -5 -1 -10 4 -10 6 0 11 5 11 10 0 6 -2 10 -4 10 -3 0
-8 -4 -11 -10z"/>
</g>
</svg>
